HIERARCHY
ROOT Hips
{
	OFFSET 0.000000 0.000000 0.000000
	CHANNELS 6 Xposition Yposition Zposition Zrotation Yrotation Xrotation 
	JOINT LHipJoint
	{
		OFFSET 0.000000 0.000000 0.000000
		CHANNELS 3 Zrotation Yrotation Xrotation
		JOINT LeftUpLeg
		{
			OFFSET 1.363060 -1.794630 0.839290
			CHANNELS 3 Zrotation Yrotation Xrotation
			JOINT LeftLeg
			{
				OFFSET 2.448110 -6.726130 0.000000
				CHANNELS 3 Zrotation Yrotation Xrotation
				JOINT LeftFoot
				{
					OFFSET 2.562200 -7.039590 0.000000
					CHANNELS 3 Zrotation Yrotation Xrotation
					JOINT LeftToeBase
					{
						OFFSET 0.157640 -0.433110 2.322550
						CHANNELS 3 Zrotation Yrotation Xrotation
						End Site
						{
							OFFSET 0.000000 0.000000 0.000000
						}
					}
				}
			}
		}
	}
	JOINT RHipJoint
	{
		OFFSET 0.000000 0.000000 0.000000
		CHANNELS 3 Zrotation Yrotation Xrotation
		JOINT RightUpLeg
		{
			OFFSET -1.305520 -1.794630 0.839290
			CHANNELS 3 Zrotation Yrotation Xrotation
			JOINT RightLeg
			{
				OFFSET -2.542530 -6.985550 0.000000
				CHANNELS 3 Zrotation Yrotation Xrotation
				JOINT RightFoot
				{
					OFFSET -2.568260 -7.056230 0.000000
					CHANNELS 3 Zrotation Yrotation Xrotation
					JOINT RightToeBase
					{
						OFFSET -0.164730 -0.452590 2.363150
						CHANNELS 3 Zrotation Yrotation Xrotation
						End Site
						{
							OFFSET 0.000000 0.000000 0.000000
						}
					}
				}
			}
		}
	}
}
MOTION
Frames: 25
Frame Time: 0.008333
-13.423566 17.021255 -0.868312 157.745431 89.456986 169.169107 -11.497238 3.543209 -0.833397 -5.010923 7.421793 -5.383694 -0.682508 2.017529 35.073087 0.473948 0.722797 5.401640 0.079200 -0.000001 -80.503800 8.379597 -0.897618 3.255339 10.245943 5.827798 -30.470677 2.843829 0.267871 6.608273 -0.170281 -2.284336 7.695354 -1.420900 0.000000 -30.731600
-13.253900 17.043913 -0.852510 -165.649954 89.553895 -154.346850 -11.773856 3.528426 -0.922032 -4.301021 8.241754 -6.808928 -0.447473 2.212684 37.889582 0.626946 1.184727 7.962055 0.132001 -0.000000 -79.438800 8.218562 -1.020210 3.231304 10.863885 5.941090 -29.957264 2.883124 0.220932 7.220534 -0.151589 -2.146789 7.383302 -1.364200 -0.000000 -29.829500
-13.087962 17.066883 -0.835491 -145.117997 89.299571 -133.944590 -12.035330 3.445345 -1.007041 -3.653570 8.934158 -8.276155 -0.170180 2.351964 40.724075 0.821856 1.928633 10.381751 0.281700 -0.000000 -76.793900 8.015954 -1.142225 3.205839 11.457000 5.973075 -29.364219 2.944447 0.191778 7.719015 -0.129552 -1.993645 6.911611 -1.297500 0.000000 -28.943800
-12.925830 17.089834 -0.817244 -136.325209 88.991386 -125.279301 -12.244341 3.311187 -1.084264 -3.108703 9.487430 -9.765146 0.084415 2.463968 43.552913 1.043621 2.963748 12.502294 0.565500 -0.000001 -72.695700 7.857490 -1.255917 3.170149 12.037119 5.936362 -28.697888 3.017795 0.177151 8.078959 -0.117858 -1.859425 6.332813 -1.231000 0.000000 -28.050600
-12.767367 17.112643 -0.797842 -133.032681 88.691424 -122.106579 -12.415974 3.149888 -1.152454 -2.691632 9.894545 -11.275885 0.300799 2.567298 46.346845 1.279798 4.282069 14.197625 0.999699 -0.000000 -67.490300 7.723521 -1.355050 3.120064 12.574694 5.834525 -27.953963 3.090713 0.182715 8.282699 -0.115418 -1.759610 5.699368 -1.172601 -0.000000 -27.136400
-12.612403 17.135309 -0.777241 -132.646834 88.414299 -121.830202 -12.554265 2.975016 -1.208651 -2.411846 10.145216 -12.804677 0.481425 2.670394 49.074844 1.519656 5.851623 15.394211 1.573400 -0.000000 -61.698500 7.609733 -1.437059 3.056163 13.051726 5.669864 -27.137992 3.159131 0.209343 8.322564 -0.120830 -1.698378 5.054317 -1.124600 0.000000 -26.210100
-12.460478 17.157877 -0.755700 -133.858210 88.155409 -123.135100 -12.665043 2.795003 -1.249809 -2.256643 10.238476 -14.352205 0.633376 2.778095 51.708592 1.755349 7.608397 16.072516 2.245100 -0.000000 -55.893800 7.511457 -1.502823 2.983244 13.468087 5.460432 -26.256929 3.222259 0.257807 8.186778 -0.134103 -1.687269 4.438441 -1.091201 0.000000 -25.274800
-12.311172 17.180440 -0.733282 -136.076796 87.912536 -125.427416 -12.749784 2.617673 -1.272575 -2.221344 10.174207 -15.914835 0.763919 2.892243 54.218749 1.981978 9.475222 16.257444 2.957100 0.000000 -50.538900 7.430290 -1.552144 2.904071 13.818819 5.214268 -25.326067 3.278729 0.326294 7.882761 -0.153313 -1.721598 3.879229 -1.071200 0.000000 -24.365900
-12.164059 17.203165 -0.709946 -138.953482 87.684005 -128.356114 -12.808399 2.449189 -1.275134 -2.300350 9.959517 -17.485425 0.879011 3.012131 56.578513 2.195696 11.365164 15.995812 3.644101 -0.000000 -45.873801 7.369647 -1.584924 2.820276 14.099819 4.935781 -24.363226 3.327390 0.411547 7.429436 -0.175478 -1.787901 3.392993 -1.061201 0.000000 -23.529000
-12.018637 17.226102 -0.685951 -142.133699 87.461716 -131.563672 -12.843491 2.291448 -1.256761 -2.472853 9.611835 -19.061265 0.983225 3.134810 58.766495 2.392721 13.186393 15.347422 4.241999 -0.000000 -41.983299 7.327952 -1.603602 2.736935 14.318563 4.642580 -23.383118 3.368596 0.511026 6.843078 -0.199288 -1.882501 2.988772 -1.060900 -0.000000 -22.788100
-11.874466 17.249276 -0.661381 -145.406629 87.244230 -134.839053 -12.855721 2.145365 -1.218144 -2.723652 9.152195 -20.633022 1.078679 3.255762 60.757724 2.569639 14.859383 14.388300 4.702900 0.000000 -38.902400 7.305620 -1.610181 2.656882 14.478723 4.345348 -22.401022 3.402190 0.620749 6.151479 -0.222708 -1.993581 2.664510 -1.067301 0.000000 -22.175900
-11.731454 17.272609 -0.636141 -148.672180 87.039368 -138.092645 -12.843956 2.012056 -1.164481 -3.042635 8.609563 -22.174589 1.164801 3.370503 62.523152 2.721985 16.314781 13.191163 4.994900 0.000000 -36.477800 7.305748 -1.605638 2.576133 14.579845 4.038980 -21.421245 3.427573 0.734736 5.393721 -0.241982 -2.094861 2.407106 -1.073600 0.000000 -21.719100
-11.588925 17.295810 -0.610703 -151.712133 86.839551 -141.090872 -12.814673 1.887291 -1.094969 -3.400288 8.010630 -23.705919 1.240622 3.475347 64.060264 2.843585 17.486464 11.783677 5.091100 0.000000 -34.325300 7.318066 -1.595736 2.509002 14.639361 3.767517 -20.465508 3.446198 0.852999 4.579747 -0.260877 -2.209099 2.210189 -1.085700 -0.000001 -21.412300
-11.447107 17.318734 -0.584761 -154.586578 86.665771 -143.914929 -12.764938 1.771763 -1.015942 -3.796564 7.381048 -25.179219 1.302666 3.564166 65.323768 2.934885 18.363642 10.321949 5.028500 0.000000 -32.880600 7.348149 -1.579938 2.443774 14.651788 3.506337 -19.525737 3.457154 0.968030 3.757877 -0.274008 -2.295376 2.049688 -1.092600 -0.000000 -21.262400
-11.305980 17.340978 -0.558495 -157.243425 86.526613 -146.518476 -12.697998 1.663777 -0.933746 -4.214967 6.752834 -26.581685 1.347525 3.635558 66.305308 2.991577 18.924058 8.839367 4.822500 -0.000000 -31.750900 7.391578 -1.560710 2.379995 14.626615 3.263940 -18.599755 3.461287 1.077090 2.949480 -0.281383 -2.349117 1.910463 -1.092500 0.000000 -21.248901
-11.165142 17.362137 -0.531925 -159.743959 86.431763 -148.952416 -12.614817 1.562405 -0.846810 -4.653530 6.138410 -27.923266 1.372499 3.687117 66.998774 3.014429 19.183237 7.410061 4.517600 -0.000000 -30.948400 7.445990 -1.539515 2.324079 14.564094 3.055964 -17.705077 3.458608 1.179663 2.169833 -0.284535 -2.375244 1.778779 -1.086300 0.000001 -21.362700
-11.024968 17.381811 -0.505222 -162.089770 86.391962 -151.234594 -12.517235 1.466589 -0.761967 -5.101751 5.562532 -29.177681 1.375774 3.718067 67.394483 3.006216 19.176545 6.100627 4.162500 -0.000000 -30.485600 7.509676 -1.517367 2.268812 14.472964 2.870208 -16.825426 3.450389 1.272937 1.435947 -0.281668 -2.358626 1.642199 -1.069800 -0.000000 -21.568800
-10.885323 17.399606 -0.478533 -164.320354 86.413629 -153.402444 -12.407071 1.375612 -0.680904 -5.555262 5.037250 -30.348400 1.356649 3.729169 67.499865 2.971127 18.949261 4.932975 3.792199 0.000000 -30.193900 7.579977 -1.494941 2.215488 14.358224 2.710512 -15.962936 3.437677 1.357415 0.750652 -0.273516 -2.301435 1.492997 -1.043401 0.000000 -21.834000
-10.746207 17.415140 -0.452044 -166.480396 86.500526 -155.500710 -12.285665 1.288858 -0.604365 -6.010755 4.568967 -31.438380 1.315776 3.721377 67.325318 2.916144 18.562674 3.923510 3.437900 -0.000000 -30.002400 7.655103 -1.472627 2.164419 14.225154 2.575432 -15.116657 3.421679 1.434047 0.111963 -0.260424 -2.204804 1.326919 -1.007900 -0.000000 -22.126499
-10.607481 17.428155 -0.426053 -168.593984 86.652274 -157.551657 -12.154943 1.205537 -0.532402 -6.462575 4.159759 -32.454668 1.254589 3.696555 66.888577 2.848773 18.078157 3.057332 3.114900 -0.000000 -29.763100 7.732521 -1.450854 2.116366 14.081352 2.463958 -14.285813 3.403962 1.504661 -0.488059 -0.243009 -2.072878 1.142954 -0.964400 -0.000001 -22.411400
-10.469085 17.438482 -0.400715 -170.712009 86.865495 -159.605632 -12.015658 1.125465 -0.463707 -6.907389 3.805013 -33.402835 1.175214 3.656215 66.206940 2.777451 17.559434 2.319553 2.833700 -0.000001 -29.463500 7.811474 -1.429489 2.071372 13.931629 2.370450 -13.469087 3.385815 1.571147 -1.059288 -0.221346 -1.907181 0.942161 -0.914300 0.000000 -22.668700
-10.330831 17.446042 -0.376268 -172.861151 87.133586 -161.687379 -11.869068 1.048188 -0.396537 -7.338498 3.497259 -34.290748 1.079769 3.602258 65.300881 2.708983 17.055644 1.675022 2.593000 0.000001 -29.054100 7.890440 -1.408599 2.029590 13.783223 2.290511 -12.665560 3.368704 1.635585 -1.613120 -0.195709 -1.711133 0.727709 -0.858999 -0.000000 -22.883000
-10.192456 17.450823 -0.353058 -174.997322 87.446172 -163.747163 -11.718022 0.972120 -0.327434 -7.743536 3.226818 -35.132166 0.970297 3.536418 64.193303 2.647986 16.597235 1.077217 2.383800 0.000000 -28.459900 7.965415 -1.389310 1.993704 13.647884 2.226711 -11.878235 3.354472 1.700578 -2.162266 -0.167274 -1.493990 0.503390 -0.801300 -0.000000 -23.034900
-10.053842 17.452981 -0.331102 -177.169478 87.793087 -165.835048 -11.562316 0.897692 -0.253746 -8.116888 2.980497 -35.927400 0.848622 3.459490 62.897777 2.597998 16.205699 0.504782 2.201900 -0.000000 -27.787200 8.037385 -1.371248 1.961552 13.528762 2.167997 -11.105705 3.343807 1.766739 -2.711127 -0.135432 -1.253338 0.273661 -0.741500 -0.000000 -23.146999
-9.914750 17.452634 -0.310492 -179.359880 88.162315 -167.931728 -11.403356 0.824256 -0.172231 -8.448687 2.746162 -36.680035 0.716354 3.371969 61.427456 2.559823 15.881640 -0.063716 2.039700 0.000000 -27.098900 8.105022 -1.355021 1.932703 13.432594 2.110024 -10.349654 3.337573 1.834646 -3.262165 -0.100487 -0.992080 0.042675 -0.680600 0.000000 -23.238300
